<svg width="17" height="32" viewBox="0 0 17 32" fill="none" xmlns="http://www.w3.org/2000/svg">
<path d="M16.4213 16.0848C16.4235 16.0507 16.4235 16.0165 16.4213 15.9824C16.4034 15.7374 16.3121 15.5039 16.1596 15.3134L4.2922 0.705007C4.19435 0.584311 4.07407 0.484438 3.93825 0.411097C3.80242 0.337755 3.65371 0.29239 3.50063 0.277595C3.34756 0.262801 3.19312 0.278862 3.04615 0.324871C2.89918 0.370881 2.76257 0.44593 2.64414 0.545723L1.04527 1.89962C0.926658 1.99919 0.828508 2.12159 0.756433 2.2598C0.684358 2.39801 0.639775 2.54933 0.625236 2.70509C0.610697 2.86086 0.62648 3.01802 0.671696 3.16757C0.716911 3.31712 0.790665 3.45612 0.888735 3.57663L11.0522 16.0916L0.888735 28.6067C0.691241 28.8503 0.59681 29.1637 0.626157 29.4781C0.655504 29.7925 0.806233 30.0822 1.04527 30.2837L2.64638 31.6307C2.76481 31.7305 2.90141 31.8056 3.04838 31.8516C3.19535 31.8976 3.34979 31.9137 3.50287 31.8989C3.65595 31.8841 3.80465 31.8387 3.94048 31.7654C4.07631 31.692 4.19659 31.5922 4.29444 31.4715L16.1596 16.8608C16.3124 16.6714 16.4039 16.4385 16.4213 16.194C16.4238 16.1577 16.4238 16.1212 16.4213 16.0848Z" fill="#ED1B5E"/>
</svg>
